<svg width="67" height="66" viewBox="0 0 67 66" fill="none" xmlns="http://www.w3.org/2000/svg">
<ellipse cx="33.302" cy="33.182" rx="32.9167" ry="32.609" fill="#2E2B2B"/>
<g clip-path="url(#clip0_504_18)">
<path d="M42.2448 51.1244C42.7064 51.1244 43.0806 50.7502 43.0806 50.2887C43.0806 49.8271 42.7064 49.4529 42.2448 49.4529C41.7832 49.4529 41.4091 49.8271 41.4091 50.2887C41.4091 50.7502 41.7832 51.1244 42.2448 51.1244Z" fill="#FDF6F6"/>
<path d="M44.0671 47.9866C44.4771 48.1985 44.9814 48.0375 45.1932 47.6273C46.1622 45.7496 46.6745 43.6355 46.6745 41.513C46.6745 35.044 42.0715 29.6558 35.9868 28.4116C35.9812 28.4104 35.9652 28.4074 35.9628 28.407C35.3625 28.2855 34.7516 28.206 34.1379 28.1677V22.9588C34.1379 22.0371 34.8877 21.2873 35.8094 21.2873C40.418 21.2873 44.1672 17.5381 44.1672 12.9295C44.1672 12.468 43.7929 12.0938 43.3314 12.0938H40.8241C37.52 12.0938 34.6577 14.021 33.3021 16.8104C31.9465 14.021 29.0842 12.0938 25.7801 12.0938H23.2728C22.8113 12.0938 22.437 12.468 22.437 12.9295C22.437 17.5381 26.1862 21.2873 30.7948 21.2873C31.7165 21.2873 32.4663 22.0371 32.4663 22.9588V28.1678C25.3562 28.6104 19.9297 34.5268 19.9297 41.513C19.9297 48.8866 25.9285 54.8854 33.3021 54.8854C35.5117 54.8854 37.7031 54.3325 39.6394 53.2862C40.0454 53.0669 40.1968 52.5598 39.9774 52.1536C39.7579 51.7475 39.251 51.5963 38.8448 51.8156C37.3009 52.6498 35.5709 53.1239 33.8121 53.2012C34.0444 53.0793 34.2109 52.8527 34.2508 52.5843C34.4483 51.2539 35.0097 50.7647 35.8594 50.0243C36.4269 49.5298 37.07 48.9694 37.7027 48.0779C38.3974 47.0998 38.6652 45.9099 38.4569 44.7268L38.1426 42.945C38.0625 42.4905 37.629 42.1868 37.1747 42.267L35.6029 42.5437C34.6886 42.7052 33.7764 42.3419 33.2228 41.5961C32.0926 40.0718 30.119 39.5378 28.3841 40.2328C28.379 40.2295 28.3741 40.2263 28.3691 40.223C27.7449 39.8108 27.3894 39.2212 27.3681 38.5627C27.3541 38.1318 27.4828 37.705 27.7248 37.3336C27.8083 37.4852 27.9455 37.6302 28.18 37.7089C28.4729 37.8073 28.7926 37.7351 29.0145 37.5294C29.3727 37.1971 29.2868 36.7908 29.2221 36.5336C29.1958 36.1907 28.9627 35.7625 29.2921 35.2917C29.4413 35.0786 29.6646 34.9363 29.9203 34.8911L30.9963 34.702C32.1437 34.4988 34.7551 31.8099 36.1375 30.1607C37.785 30.5717 39.3179 31.338 40.6417 32.4078C38.4995 33.6645 38.5643 33.5921 38.4299 33.7263C37.9371 34.2178 37.6479 34.8995 37.6479 35.5967V36.6564C37.6479 38.115 38.8412 39.3016 40.2998 39.3016C40.8367 39.3016 41.2734 39.7381 41.2734 40.2745C41.2734 40.6777 41.5613 41.0235 41.9579 41.0965L45.0005 41.6559C44.9789 43.4874 44.545 45.2379 43.7075 46.8606C43.4961 47.2708 43.657 47.775 44.0671 47.9866ZM30.7948 19.6157C27.391 19.6157 24.5733 17.0589 24.1605 13.7653H25.7801C29.3347 13.7653 32.2505 16.5534 32.4549 20.0578C31.9655 19.7767 31.3985 19.6157 30.7948 19.6157ZM40.8241 13.7645H42.4436C42.0309 17.0581 39.2132 19.6157 35.8094 19.6157C35.2056 19.6157 34.6387 19.7767 34.1493 20.0578C34.3537 16.5534 37.2694 13.7645 40.8241 13.7645ZM31.8804 42.592C32.814 43.8498 34.3521 44.4619 35.8932 44.1898L36.6417 44.0581L36.8107 45.017C36.9409 45.756 36.7736 46.4993 36.3396 47.1105C35.822 47.8399 35.2827 48.3098 34.7613 48.7641C34.1939 49.2585 33.6146 49.7632 33.1857 50.5302C32.6157 49.7769 32.2343 49.6105 31.9877 49.435C31.9661 49.393 31.9049 49.2433 31.8233 48.7816C31.6693 47.9058 31.1832 47.1429 30.4551 46.6338L29.8891 46.2373C30.6696 45.0688 30.6345 43.5382 29.7943 42.4058L29.2683 41.6967C30.2326 41.4309 31.2671 41.7649 31.8804 42.592ZM28.4521 43.4018C28.8775 43.975 28.8881 44.7537 28.4792 45.3382L28.0412 45.9626C27.7761 46.3405 27.8678 46.8621 28.2459 47.1271L29.4968 48.0033C29.859 48.2566 30.1007 48.6357 30.1774 49.0718C30.3827 50.2341 30.6445 50.5659 31.1915 50.9107C31.3692 51.0227 31.5528 51.1386 31.8653 51.555L32.717 52.9072C32.8016 53.0415 32.9207 53.1441 33.0569 53.2109C26.7178 53.0796 21.6012 47.8829 21.6012 41.513C21.6012 40.6793 21.6914 39.8482 21.8672 39.0369C22.1338 39.394 22.4931 39.6892 22.9261 39.8788L27.2445 41.7738L28.4521 43.4018ZM30.6788 33.0607L29.6305 33.2449C28.9347 33.3678 28.3282 33.7542 27.923 34.333C27.7245 34.6167 27.5862 34.9301 27.511 35.2577C27.4314 35.2934 27.3543 35.3387 27.2812 35.3942C26.2496 36.1759 25.6575 37.3806 25.6976 38.6169C25.7053 38.8526 25.7361 39.0843 25.7889 39.3097L23.5972 38.3479C23.1446 38.1497 22.9069 37.6503 23.0563 37.2109C23.2199 36.7289 23.2455 36.2148 23.1356 35.7269C25.2235 32.0701 29.0875 29.8122 33.3021 29.8122C33.6022 29.8122 33.9026 29.8239 34.202 29.8469C32.7362 31.4816 31.1468 32.8814 30.6788 33.0607ZM40.3 37.63C39.7631 37.63 39.3197 37.1932 39.3197 36.6563V35.5966C39.3197 35.3709 39.4067 35.1499 39.5492 34.9772L41.9152 33.6009C43.5414 35.3695 44.5758 37.5718 44.8958 39.937L42.8473 39.5603C42.5349 38.4479 41.5112 37.63 40.3 37.63Z" fill="#FDF6F6"/>
</g>
<defs>
<clipPath id="clip0_504_18">
<rect width="42.7917" height="42.7917" fill="white" transform="translate(11.9062 12.0938)"/>
</clipPath>
</defs>
</svg>
