<svg width="66" height="66" viewBox="0 0 66 66" fill="none" xmlns="http://www.w3.org/2000/svg">
<ellipse cx="33.0418" cy="33.182" rx="32.9167" ry="32.609" fill="#2E2B2B"/>
<g clip-path="url(#clip0_504_20)">
<path d="M48.6489 31.605C48.2583 31.605 47.9417 31.9217 47.9417 32.3122C47.9417 32.7027 48.2583 33.0194 48.6489 33.0194C49.2459 33.0194 49.7316 33.505 49.7316 34.102C49.7316 34.6991 49.2459 35.1847 48.6489 35.1847H47.3077C47.1872 32.9713 46.5017 30.8347 45.3069 28.9664C44.117 27.1058 42.4755 25.5875 40.5388 24.5476C40.5843 24.21 40.6088 23.8677 40.6088 23.5219C40.6088 19.3495 37.2142 15.955 33.0418 15.955C28.8693 15.955 25.4748 19.3495 25.4748 23.5219C25.4748 23.6847 25.4812 23.8465 25.4914 24.0077C25.4788 24.0129 25.4661 24.0178 25.4536 24.0231L22.3213 22.2066C21.9185 21.973 21.4372 21.9723 21.0336 22.2047C20.6301 22.4372 20.3892 22.8539 20.3892 23.3196V27.8523C19.4635 29.0073 18.7537 30.2932 18.2737 31.6842H16.9001C15.818 31.6842 14.9376 32.5645 14.9376 33.6466V38.1373C14.9376 39.2194 15.818 40.0998 16.9001 40.0998H18.274C19.1459 42.6193 20.7951 44.8227 22.976 46.3782V49.525C22.976 50.3526 23.6493 51.0259 24.477 51.0259H27.1121C27.677 51.0259 28.1885 50.7139 28.4468 50.2116L29.2217 48.7052C29.6277 48.7435 30.0357 48.7628 30.4402 48.7628H34.4562C34.8606 48.7628 35.2687 48.7435 35.6747 48.7052L36.4495 50.2116C36.7079 50.7139 37.2193 51.0259 37.7842 51.0259H40.4194C41.247 51.0259 41.9203 50.3526 41.9203 49.525V46.3782C45.1209 44.0976 47.0935 40.5053 47.3069 36.5991H48.649C50.0258 36.5991 51.146 35.479 51.146 34.1021C51.146 32.7253 50.0258 31.605 48.6489 31.605ZM33.0418 17.3693C36.4343 17.3693 39.1944 20.1293 39.1944 23.5219C39.1944 24.6078 38.9141 25.6529 38.3808 26.5803C37.3551 26.0192 36.259 25.6318 35.1359 25.4186C35.2965 25.1217 35.3875 24.7866 35.3875 24.4318C35.3875 23.2219 34.3352 22.2376 33.0418 22.2376C32.5283 22.2376 32.1105 21.8878 32.1105 21.4578C32.1105 21.0279 32.5283 20.6781 33.0418 20.6781C33.5553 20.6781 33.9731 21.0279 33.9731 21.4578C33.9731 21.8484 34.2897 22.165 34.6803 22.165C35.0709 22.165 35.3875 21.8484 35.3875 21.4578C35.3875 20.4785 34.6978 19.6471 33.749 19.3658V19.2675C33.749 18.8769 33.4324 18.5603 33.0418 18.5603C32.6512 18.5603 32.3346 18.8769 32.3346 19.2675V19.3658C31.3858 19.6471 30.6961 20.4785 30.6961 21.4578C30.6961 22.6677 31.7483 23.652 33.0418 23.652C33.5553 23.652 33.9731 24.0018 33.9731 24.4318C33.9731 24.8618 33.5553 25.2116 33.0418 25.2116C32.5283 25.2116 32.1105 24.8618 32.1105 24.4318C32.1105 24.0413 31.7939 23.7246 31.4033 23.7246C31.0127 23.7246 30.6961 24.0413 30.6961 24.4318C30.6961 24.7878 30.7877 25.1239 30.9493 25.4215C29.8269 25.6362 28.7317 26.0252 27.707 26.5876C27.1709 25.6586 26.8892 24.6108 26.8892 23.5219C26.8892 20.1293 29.6492 17.3693 33.0418 17.3693ZM40.8197 45.4195C40.6236 45.5507 40.5059 45.7712 40.5059 46.0072V49.525C40.5059 49.5726 40.467 49.6114 40.4193 49.6114H37.7842C37.7517 49.6114 37.7222 49.5935 37.7073 49.5646L36.7091 47.624C36.5722 47.358 36.2829 47.2066 35.9868 47.2465C35.4795 47.3141 34.9645 47.3484 34.4562 47.3484H30.4402C29.9318 47.3484 29.4169 47.3141 28.9096 47.2465C28.6128 47.2065 28.324 47.3581 28.1873 47.624L27.1891 49.5646C27.1742 49.5935 27.1447 49.6114 27.1121 49.6114H24.477C24.4292 49.6114 24.3904 49.5726 24.3904 49.525V46.0072C24.3904 45.7712 24.2727 45.5508 24.0765 45.4195C21.8645 43.9388 20.2271 41.7262 19.4659 39.1892C19.3762 38.8901 19.1009 38.6852 18.7886 38.6852H16.9001C16.5979 38.6852 16.352 38.4393 16.352 38.1372V36.599H17.3421C17.7327 36.599 18.0493 36.2823 18.0493 35.8918C18.0493 35.5013 17.7327 35.1846 17.3421 35.1846H16.352V33.6465C16.352 33.3443 16.5979 33.0984 16.9001 33.0984H18.7886C19.1009 33.0984 19.3763 32.8936 19.466 32.5945C19.9111 31.1108 20.6423 29.7525 21.6394 28.5575C21.7455 28.4304 21.8036 28.2701 21.8036 28.1045V23.5414L25.054 25.4263C25.252 25.5412 25.4932 25.553 25.7016 25.4583C25.7087 25.4551 25.7158 25.452 25.7229 25.4488C25.8969 26.1128 26.1616 26.7499 26.5126 27.3467C26.0548 27.6809 25.6167 28.0543 25.2037 28.4674C24.9275 28.7436 24.9275 29.1914 25.2037 29.4676C25.4798 29.7437 25.9276 29.7437 26.2039 29.4676C29.9793 25.6921 36.1224 25.6921 39.8978 29.4676C40.0359 29.6056 40.2169 29.6747 40.3979 29.6747C40.5788 29.6747 40.7599 29.6056 40.8979 29.4676C41.1741 29.1914 41.1741 28.7436 40.8979 28.4674C40.481 28.0505 40.0388 27.6742 39.5763 27.3377C39.8305 26.9042 40.0391 26.4494 40.2006 25.9784C43.6962 28.013 45.9127 31.8153 45.9127 35.8919C45.9127 39.7232 44.0088 43.2849 40.8197 45.4195Z" fill="#FDF6F6"/>
<path d="M23.6838 30.9408C23.4971 30.9408 23.3153 31.0158 23.1838 31.148C23.0515 31.2796 22.9766 31.462 22.9766 31.648C22.9766 31.834 23.0515 32.0165 23.1838 32.148C23.3153 32.2795 23.4971 32.3552 23.6838 32.3552C23.8697 32.3552 24.0522 32.2795 24.1837 32.148C24.3153 32.0165 24.391 31.834 24.391 31.648C24.391 31.462 24.3153 31.2796 24.1837 31.148C24.0515 31.0158 23.8697 30.9408 23.6838 30.9408Z" fill="black"/>
</g>
<defs>
<clipPath id="clip0_504_20">
<rect width="36.2083" height="36.2083" fill="white" transform="translate(14.9376 15.3854)"/>
</clipPath>
</defs>
</svg>
