<svg width="67" height="66" viewBox="0 0 67 66" fill="none" xmlns="http://www.w3.org/2000/svg">
<ellipse cx="33.7812" cy="32.8276" rx="32.9167" ry="32.609" fill="#2E2B2B"/>
<g clip-path="url(#clip0_504_21)">
<path d="M52.1703 29.2916H50.6823C50.0727 29.2916 49.4958 29.4343 48.9832 29.688C48.4181 28.8726 47.662 28.2059 46.7889 27.7487C47.0798 26.8163 47.1494 25.8141 46.9722 24.8332C47.5141 24.6501 48.023 24.3431 48.454 23.9121C49.6232 22.7596 50.6232 21.9383 50.6282 20.1421C50.6592 16.7522 46.4496 15.0144 44.0703 17.4243C44.0703 17.4242 43.0183 18.4764 43.0183 18.4764C42.5872 18.9074 42.2803 19.4162 42.0971 19.958C41.1211 19.7811 40.1148 19.8444 39.1742 20.1384C38.7207 19.2733 38.0611 18.5155 37.2423 17.9472C37.496 17.4346 37.6386 16.8577 37.6386 16.2481V14.7602C37.6387 12.6407 35.9145 10.9165 33.7951 10.9165C31.6756 10.9165 29.9515 12.6407 29.9515 14.7602V16.248C29.9515 16.8577 30.0942 17.4346 30.3479 17.9471C29.5325 18.5122 28.8658 19.2685 28.4085 20.1415C27.4762 19.8506 26.474 19.7811 25.4932 19.9582C25.307 19.4053 24.9951 18.8996 24.572 18.4764L23.5198 17.4241C21.1403 15.0146 16.9308 16.7522 16.9619 20.1421C16.967 21.9383 17.9674 22.76 19.1362 23.912C19.5593 24.3351 20.0651 24.647 20.6178 24.8332C20.441 25.8093 20.5043 26.8154 20.7982 27.7561C19.9332 28.2097 19.1754 28.8691 18.6071 29.688C18.0945 29.4343 17.5176 29.2916 16.9079 29.2916H15.42C13.3006 29.2916 11.5764 31.0159 11.5764 33.1353C11.5764 35.2547 13.3006 36.979 15.42 36.979H16.9079C17.5176 36.979 18.0945 36.8363 18.6071 36.5826C19.1722 37.398 19.9283 38.0647 20.8013 38.5219C20.5104 39.4542 20.4409 40.4564 20.618 41.4373C20.0762 41.6204 19.5673 41.9274 19.1362 42.3585L18.0841 43.4106C16.5977 44.8355 16.5977 47.4215 18.0841 48.8464C19.5828 50.3449 22.0212 50.3449 23.5198 48.8464L24.572 47.7942C25.003 47.3632 25.31 46.8544 25.4931 46.3126C26.4692 46.4894 27.4753 46.4261 28.416 46.1322C28.8695 46.9973 29.529 47.7551 30.3479 48.3234C30.0942 48.8359 29.9515 49.4129 29.9515 50.0225V51.5103C29.9515 53.6297 31.6758 55.354 33.7952 55.354C35.9145 55.354 37.6388 53.6298 37.6388 51.5103V50.0225C37.6388 49.4129 37.4961 48.8359 37.2424 48.3234C38.0578 47.7582 38.7245 47.002 39.1817 46.1291C40.118 46.4219 41.1269 46.4883 42.0971 46.3124C42.2802 46.8542 42.5872 47.3631 43.0183 47.7942L44.0703 48.8463C45.5691 50.3449 48.0075 50.3448 49.5061 48.8463C50.9922 47.4213 50.9925 44.8354 49.506 43.4106C49.5061 43.4106 48.4539 42.3584 48.4539 42.3584C48.0229 41.9274 47.5141 41.6204 46.9723 41.4373C47.1492 40.4613 47.0859 39.4551 46.792 38.5143C47.657 38.0609 48.4148 37.4014 48.9831 36.5825C49.4957 36.8362 50.0726 36.9789 50.6822 36.9789H52.1702C57.2621 36.7861 57.261 29.4838 52.1703 29.2916ZM44.2457 19.7037L45.2978 18.6516C45.7087 18.2407 46.2485 18.0352 46.7882 18.0352C48.6495 18.0321 49.599 20.3018 48.2787 21.6325L47.2267 22.6846C45.1779 24.5839 42.3461 21.753 44.2457 19.7037ZM39.7501 24.7513C39.829 24.6176 39.8706 24.4654 39.8706 24.3102V22.9433C39.8706 22.5484 39.831 22.1576 39.7548 21.7759C40.4556 21.5682 41.205 21.5382 41.9268 21.6935C42.0973 23.3511 43.5794 24.8332 45.2369 25.0037C45.5461 26.4425 45.105 27.9626 44.0706 28.997L43.2716 29.7959L35.6075 31.7718L39.7501 24.7513ZM31.6873 14.7602C31.7931 11.9681 35.7973 11.9682 35.903 14.7602V16.248C35.903 17.4103 34.9574 18.3558 33.7952 18.3558C32.6329 18.3558 31.6873 17.4103 31.6873 16.248V14.7602ZM31.4545 19.2948C32.7472 20.3463 34.8432 20.3462 36.1358 19.2948C37.3718 20.0937 38.1347 21.4804 38.1347 22.9433V24.0732L34.1126 30.8896L32.0776 22.9961C32.0389 22.8458 31.9606 22.7087 31.8509 22.599C31.3377 22.0999 30.5818 21.2614 29.9769 20.889C30.3256 20.2465 30.8342 19.6955 31.4545 19.2948ZM19.3115 21.6325C18.4985 20.8537 18.4986 19.4305 19.3115 18.6517C20.1333 17.8298 21.4705 17.8299 22.2923 18.6517L23.3444 19.7038C23.7403 20.0997 23.9582 20.6289 23.9582 21.1943C23.9808 22.3326 22.9925 23.3212 21.8539 23.2985C21.2887 23.2985 20.7593 23.0805 20.3636 22.6848C20.3636 22.6847 19.3115 21.6325 19.3115 21.6325ZM15.42 35.2431C12.628 35.1373 12.6281 31.1331 15.42 31.0274H16.9079C18.0701 31.0274 19.0157 31.973 19.0157 33.1353C19.0157 34.2975 18.0701 35.2431 16.9079 35.2431H15.42ZM19.9548 35.4758C21.0062 34.1832 21.0061 32.0872 19.9548 30.7947C20.7536 29.5587 22.1403 28.7957 23.6032 28.7957H24.9701C26.1197 28.7534 26.1203 27.1024 24.9701 27.0598C24.2513 27.0707 23.1291 27.0106 22.4359 27.1756C22.2281 26.4744 22.1982 25.7245 22.3538 25.0024C24.0368 24.8145 25.4745 23.3767 25.6624 21.6938C27.1017 21.384 28.6223 21.8252 29.657 22.8599L30.4559 23.6588L32.4318 31.3229L32.1925 31.1817C31.7795 30.938 31.2475 31.0753 31.0039 31.4881C30.7603 31.9009 30.8975 32.4331 31.3103 32.6766L31.5495 32.8178L23.656 34.8527C23.5058 34.8914 23.3686 34.9698 23.2589 35.0795C22.7598 35.5926 21.9213 36.3485 21.5489 36.9534C20.9064 36.6048 20.3554 36.0961 19.9548 35.4758ZM23.3446 46.5668L22.2924 47.6189C21.4707 48.4407 20.1335 48.4408 19.3115 47.6189C18.4987 46.84 18.4985 45.4169 19.3115 44.638L20.3636 43.5859C22.4124 41.6863 25.2441 44.5177 23.3446 46.5668ZM27.8401 41.5192C27.7612 41.6529 27.7197 41.8051 27.7197 41.9603V43.3272C27.7197 43.7221 27.7592 44.1129 27.8354 44.4946C27.1347 44.7023 26.3852 44.7324 25.6635 44.577C25.4929 42.9193 24.0108 41.4374 22.3533 41.2668C22.0442 39.8279 22.4853 38.3079 23.5198 37.2735L24.3187 36.4746L31.9828 34.4987L27.8401 41.5192ZM35.9029 51.5103C35.7971 54.3024 31.793 54.3023 31.6873 51.5103V50.0225C31.6873 48.8603 32.6329 47.9147 33.7951 47.9147C34.9573 47.9147 35.9029 48.8603 35.9029 50.0225V51.5103ZM36.1358 46.9757C34.843 45.9242 32.7471 45.9243 31.4546 46.9757C30.2186 46.1769 29.4556 44.7901 29.4556 43.3272V42.1973L33.4778 35.3809L35.5127 43.2744C35.5514 43.4247 35.6298 43.5618 35.7395 43.6715C36.2525 44.1706 37.0085 45.0091 37.6134 45.3816C37.2647 46.0239 36.7561 46.575 36.1358 46.9757ZM37.9333 43.4106L37.1344 42.6117L35.1586 34.9476L42.1791 39.0903C42.3127 39.1692 42.465 39.2108 42.6201 39.2108C43.3359 39.2009 44.4634 39.2592 45.1545 39.095C45.3621 39.7957 45.3921 40.5451 45.2368 41.267C43.5792 41.4376 42.0972 42.9196 41.9267 44.5772C40.488 44.8862 38.9678 44.4451 37.9333 43.4106ZM48.2788 44.638C49.0916 45.4168 49.0918 46.8401 48.2787 47.6188C47.4569 48.4406 46.1196 48.4406 45.2978 47.6188L44.2457 46.5667C42.9191 45.2459 43.8846 42.9568 45.7362 42.9694C46.2759 42.9694 46.8157 43.1749 47.2266 43.5858L48.2788 44.638ZM43.987 37.4748H42.8572L36.0408 33.4526L43.9343 31.4177C44.0845 31.379 44.2217 31.3007 44.3313 31.191C44.8306 30.678 45.669 29.922 46.0415 29.3172C46.6838 29.6658 47.2349 30.1744 47.6355 30.7947C46.584 32.0874 46.5842 34.1834 47.6355 35.4759C46.8367 36.7119 45.4499 37.4748 43.987 37.4748ZM52.1703 35.2431H50.6823C49.5201 35.2431 48.5745 34.2975 48.5745 33.1353C48.5745 31.973 49.5201 31.0274 50.6823 31.0274H52.1703C54.9623 31.1332 54.9623 35.1374 52.1703 35.2431Z" fill="#FDF6F6"/>
<path d="M28.3865 30.8123C28.8658 30.8123 29.2544 30.4238 29.2544 29.9444C29.2119 28.7943 27.5604 28.7945 27.5183 29.9444C27.5182 30.4238 27.9071 30.8123 28.3865 30.8123Z" fill="#FDF6F6"/>
</g>
<defs>
<clipPath id="clip0_504_21">
<rect width="44.4375" height="44.4375" fill="white" transform="translate(11.5624 10.9165)"/>
</clipPath>
</defs>
</svg>
