<svg width="67" height="66" viewBox="0 0 67 66" fill="none" xmlns="http://www.w3.org/2000/svg">
<ellipse cx="33.5208" cy="33.182" rx="32.9167" ry="32.609" fill="#2E2B2B"/>
<g clip-path="url(#clip0_504_22)">
<path d="M38.188 43.744C41.3076 43.744 43.8456 46.282 43.8456 49.4016C43.8456 49.7921 44.1623 50.1088 44.5528 50.1088C44.9433 50.1088 45.26 49.7921 45.26 49.4016C45.26 46.282 47.7979 43.744 50.9175 43.744C51.308 43.744 51.6247 43.4273 51.6247 43.0368C51.6247 42.6463 51.308 42.3296 50.9175 42.3296C47.7979 42.3296 45.26 39.7916 45.26 36.6721C45.26 36.2816 44.9433 35.9649 44.5528 35.9649C44.1623 35.9649 43.8456 36.2816 43.8456 36.6721C43.8456 39.7916 41.3076 42.3296 38.188 42.3296C37.7975 42.3296 37.4808 42.6463 37.4808 43.0368C37.4808 43.4273 37.7975 43.744 38.188 43.744ZM44.5528 39.7534C45.247 41.1815 46.408 42.3426 47.8362 43.0368C46.4081 43.731 45.247 44.8921 44.5528 46.3202C43.8586 44.8921 42.6975 43.7311 41.2693 43.0368C42.6975 42.3426 43.8586 41.1816 44.5528 39.7534Z" fill="#FDF6F6"/>
<path d="M16.1237 22.5283C18.0734 22.5283 19.6597 24.1145 19.6597 26.0642C19.6597 26.4548 19.9763 26.7714 20.3669 26.7714C20.7574 26.7714 21.0741 26.4548 21.0741 26.0642C21.0741 24.1145 22.6603 22.5283 24.61 22.5283C25.0006 22.5283 25.3172 22.2116 25.3172 21.8211C25.3172 21.4306 25.0006 21.1139 24.61 21.1139C22.6603 21.1139 21.0741 19.5277 21.0741 17.5779C21.0741 17.1874 20.7574 16.8707 20.3669 16.8707C19.9763 16.8707 19.6597 17.1874 19.6597 17.5779C19.6597 19.5277 18.0734 21.1139 16.1237 21.1139C15.7331 21.1139 15.4165 21.4306 15.4165 21.8211C15.4165 22.2116 15.7331 22.5283 16.1237 22.5283ZM20.3669 20.1255C20.785 20.8193 21.3687 21.403 22.0624 21.8211C21.3686 22.2392 20.785 22.8229 20.3669 23.5167C19.9487 22.8229 19.3651 22.2392 18.6714 21.8211C19.3651 21.403 19.9487 20.8193 20.3669 20.1255Z" fill="#FDF6F6"/>
<path d="M35.1471 36.8842C35.5377 36.8842 35.8543 36.5676 35.8543 36.177C35.8543 35.7865 35.5377 35.4698 35.1471 35.4698C34.7566 35.4698 34.4399 35.7865 34.4399 36.177C34.4399 36.5676 34.7566 36.8842 35.1471 36.8842Z" fill="#FDF6F6"/>
<path d="M37.0337 34.5642C37.233 34.9001 37.667 35.0108 38.0028 34.8115C39.8499 33.7155 41.9681 33.1361 44.1285 33.1361C44.519 33.1361 44.8357 32.8194 44.8357 32.4289C44.8357 32.0384 44.519 31.7217 44.1285 31.7217C37.4994 31.7217 32.1062 26.3285 32.1062 19.6994C32.1062 19.3089 31.7896 18.9922 31.399 18.9922C31.0084 18.9922 30.6918 19.3089 30.6918 19.6994C30.6918 26.3285 25.2986 31.7217 18.6695 31.7217C18.2789 31.7217 17.9623 32.0384 17.9623 32.4289C17.9623 32.8194 18.2789 33.1361 18.6695 33.1361C25.2986 33.1361 30.6918 38.5293 30.6918 45.1584C30.6918 45.5489 31.0084 45.8656 31.399 45.8656C31.7896 45.8656 32.1062 45.5489 32.1062 45.1584C32.1062 42.998 32.6855 40.8798 33.7815 39.0328C33.9808 38.6969 33.8701 38.263 33.5343 38.0637C33.1981 37.8642 32.7644 37.9751 32.5652 38.311C32.0869 39.117 31.6966 39.969 31.3985 40.852C30.0581 36.9005 26.9262 33.7689 22.9745 32.4289C26.9266 31.0888 30.0588 27.9566 31.399 24.0045C32.739 27.9561 35.8705 31.0881 39.8219 32.4284C38.939 32.7266 38.087 33.1168 37.2809 33.5952C36.9451 33.7945 36.8344 34.2283 37.0337 34.5642Z" fill="#FDF6F6"/>
</g>
<defs>
<clipPath id="clip0_504_22">
<rect width="36.2083" height="36.2083" fill="white" transform="translate(15.4166 15.3854)"/>
</clipPath>
</defs>
</svg>
